<svg class="rix-output-svg" xmlns="http://www.w3.org/2000/svg" viewBox="0 0 640 360" width="640" height="360" role="img"><path d="M36 304.137931 L604 304.137931" fill="none" stroke="#64748b" stroke-width="1" stroke-dasharray="3 3"/><path d="M225.333333 324 L225.333333 36" fill="none" stroke="#64748b" stroke-width="1" stroke-dasharray="3 3"/><path d="M36 55.862069 L39.55 62.030172 L43.1 68.12069 L46.65 74.133621 L50.2 80.068966 L53.75 85.926724 L57.3 91.706897 L60.85 97.409483 L64.4 103.034483 L67.95 108.581897 L71.5 114.051724 L75.05 119.443966 L78.6 124.758621 L82.15 129.99569 L85.7 135.155172 L89.25 140.237069 L92.8 145.241379 L96.35 150.168103 L99.9 155.017241 L103.45 159.788793 L107 164.482759 L110.55 169.099138 L114.1 173.637931 L117.65 178.099138 L121.2 182.482759 L124.75 186.788793 L128.3 191.017241 L131.85 195.168103 L135.4 199.241379 L138.95 203.237069 L142.5 207.155172 L146.05 210.99569 L149.6 214.758621 L153.15 218.443966 L156.7 222.051724 L160.25 225.581897 L163.8 229.034483 L167.35 232.409483 L170.9 235.706897 L174.45 238.926724 L178 242.068966 L181.55 245.133621 L185.1 248.12069 L188.65 251.030172 L192.2 253.862069 L195.75 256.616379 L199.3 259.293103 L202.85 261.892241 L206.4 264.413793 L209.95 266.857759 L213.5 269.224138 L217.05 271.512931 L220.6 273.724138 L224.15 275.857759 L227.7 277.913793 L231.25 279.892241 L234.8 281.793103 L238.35 283.616379 L241.9 285.362069 L245.45 287.030172 L249 288.62069 L252.55 290.133621 L256.1 291.568966 L259.65 292.926724 L263.2 294.206897 L266.75 295.409483 L270.3 296.534483 L273.85 297.581897 L277.4 298.551724 L280.95 299.443966 L284.5 300.258621 L288.05 300.99569 L291.6 301.655172 L295.15 302.237069 L298.7 302.741379 L302.25 303.168103 L305.8 303.517241 L309.35 303.788793 L312.9 303.982759 L316.45 304.099138 L320 304.137931 L323.55 304.099138 L327.1 303.982759 L330.65 303.788793 L334.2 303.517241 L337.75 303.168103 L341.3 302.741379 L344.85 302.237069 L348.4 301.655172 L351.95 300.99569 L355.5 300.258621 L359.05 299.443966 L362.6 298.551724 L366.15 297.581897 L369.7 296.534483 L373.25 295.409483 L376.8 294.206897 L380.35 292.926724 L383.9 291.568966 L387.45 290.133621 L391 288.62069 L394.55 287.030172 L398.1 285.362069 L401.65 283.616379 L405.2 281.793103 L408.75 279.892241 L412.3 277.913793 L415.85 275.857759 L419.4 273.724138 L422.95 271.512931 L426.5 269.224138 L430.05 266.857759 L433.6 264.413793 L437.15 261.892241 L440.7 259.293103 L444.25 256.616379 L447.8 253.862069 L451.35 251.030172 L454.9 248.12069 L458.45 245.133621 L462 242.068966 L465.55 238.926724 L469.1 235.706897 L472.65 232.409483 L476.2 229.034483 L479.75 225.581897 L483.3 222.051724 L486.85 218.443966 L490.4 214.758621 L493.95 210.99569 L497.5 207.155172 L501.05 203.237069 L504.6 199.241379 L508.15 195.168103 L511.7 191.017241 L515.25 186.788793 L518.8 182.482759 L522.35 178.099138 L525.9 173.637931 L529.45 169.099138 L533 164.482759 L536.55 159.788793 L540.1 155.017241 L543.65 150.168103 L547.2 145.241379 L550.75 140.237069 L554.3 135.155172 L557.85 129.99569 L561.4 124.758621 L564.95 119.443966 L568.5 114.051724 L572.05 108.581897 L575.6 103.034483 L579.15 97.409483 L582.7 91.706897 L586.25 85.926724 L589.8 80.068966 L593.35 74.133621 L596.9 68.12069 L600.45 62.030172 L604 55.862069" fill="none" stroke="#2d6ca2" stroke-width="2"/></svg>